<svg id="Ebene_1" data-name="Ebene 1" xmlns="http://www.w3.org/2000/svg" viewBox="0 0 576 512"><title>desktop-solid_neu</title><path d="M528,0H48A48,48,0,0,0,0,48V368a48,48,0,0,0,48,48H240l-16,48H152a24,24,0,0,0,0,48H424a24,24,0,0,0,0-48H352l-16-48H528a48,48,0,0,0,48-48V48A48,48,0,0,0,528,0ZM512,352H64V64H512Z"/><path d="M443.56,163.85q-11.73-7.07-23.44-14.18c-14.49-8.84-28.9-17.81-43.44-26.54-8.32-5-16.48-2.83-21.48,5.34-1.09,1.78-2.07,3.63-3.19,5.4q-6.56,10.38-13.16,20.74c-1.17-4.93-1.11-9.37-1.19-13.81-.17-10.16-4.85-15-14.78-15.22-25.6-.5-51.19-.88-76.79-1.44-7.83-.17-15.18.41-19.27,9.12-1.25-1.51-1.95-2.23-2.51-3-8.07-11.71-13.94-12.69-26-4.94-13,8.32-26.17,16.28-39.23,24.46C150,155.42,140.91,161.07,132,167c-6.19,4.08-7.88,10.17-5.07,17.15a40.63,40.63,0,0,0,3.42,6.14c7.9,12.62,15.86,25.22,23.76,37.84,12.07,19.27,24,38.63,36.22,57.82,6.61,10.39,12.41,11.67,22.9,5.44,8.53-5.06,16.84-10.49,25.39-15.52a15,15,0,0,1,7.17-2.29c23.77.07,47.55.25,71.31.7,5.41.1,10.4-.37,15.06-4.06,12.39,7.61,24.16,14.87,36,22.09,8.06,4.93,14.78,3.68,20.5-3.83a59.83,59.83,0,0,0,3.42-5.25q12.87-21.07,25.7-42.18c10.74-17.64,21.68-35.16,32.18-52.95C456.33,177.19,454.24,170.27,443.56,163.85ZM224.5,239.14c-.12,9.11,0,18.22,0,28.52l-20.74,13.09c-21.38-34-42.43-67.5-64.1-102l70.64-44.47a282.6,282.6,0,0,1,14.9,24.08,6.52,6.52,0,0,1,.48,3C225.28,187.33,224.84,213.23,224.5,239.14ZM322.55,263l-84.44-1.13,1-73.88v-4.33l.06,0,.62-46,84.44,1.14Zm54.57,17.92c-5.05-2.95-9.13-5.23-13.11-7.66-7.78-4.76-15.44-9.75-23.32-14.35-3.35-2-4.58-4.39-4.51-8.22.26-12.82.24-25.64.33-38.45,0-4.45.37-8.91.1-13.33a35.81,35.81,0,0,1,5.66-22.3c7.6-11.87,14.67-24.08,22-36.12,1.19-1.94,2.62-3.73,4.22-6L439,177.89C419.15,212.8,397.42,245.83,377.12,280.9Z"/></svg>